<svg width="30" height="30" viewBox="0 0 30 30" fill="none" xmlns="http://www.w3.org/2000/svg">
<path d="M19.8619 15C19.8619 14.8 19.8315 14.6125 19.7706 14.4375C19.7107 14.2625 19.6083 14.1 19.4634 13.95L15.6954 10.05C15.4297 9.775 15.0916 9.6375 14.681 9.6375C14.2703 9.6375 13.9322 9.775 13.6665 10.05C13.4008 10.325 13.268 10.675 13.268 11.1C13.268 11.525 13.4008 11.875 13.6665 12.15L14.9708 13.5L10.3333 13.5C9.92268 13.5 9.57824 13.6435 9.29999 13.9305C9.02271 14.2185 8.88407 14.575 8.88407 15C8.88407 15.425 9.02271 15.781 9.29999 16.068C9.57824 16.356 9.92268 16.5 10.3333 16.5L14.9708 16.5L13.6665 17.85C13.4008 18.125 13.268 18.475 13.268 18.9C13.268 19.325 13.4008 19.675 13.6665 19.95C13.9322 20.225 14.2703 20.3625 14.681 20.3625C15.0916 20.3625 15.4297 20.225 15.6954 19.95L19.4634 16.05C19.6083 15.9 19.7107 15.7375 19.7706 15.5625C19.8315 15.3875 19.8619 15.2 19.8619 15ZM29.1732 15C29.1732 17.075 28.7925 19.025 28.0312 20.85C27.2709 22.675 26.2385 24.2625 24.9342 25.6125C23.6299 26.9625 22.0962 28.031 20.3329 28.818C18.5697 29.606 16.6857 30 14.681 30C12.6762 30 10.7922 29.606 9.02899 28.818C7.26577 28.031 5.732 26.9625 4.4277 25.6125C3.1234 24.2625 2.09059 22.675 1.32926 20.85C0.5689 19.025 0.18872 17.075 0.18872 15C0.18872 12.925 0.5689 10.975 1.32926 9.15C2.09059 7.325 3.1234 5.7375 4.4277 4.3875C5.732 3.0375 7.26577 1.969 9.02899 1.182C10.7922 0.394001 12.6762 -5.9515e-07 14.681 -6.90696e-07C16.6857 -7.86242e-07 18.5697 0.394 20.3329 1.182C22.0962 1.969 23.6299 3.0375 24.9342 4.3875C26.2385 5.7375 27.2709 7.325 28.0312 9.15C28.7925 10.975 29.1732 12.925 29.1732 15Z" fill="white"/>
</svg>
