<svg width="60" height="68" viewBox="0 0 60 68" fill="none" xmlns="http://www.w3.org/2000/svg">
<path d="M38.3333 54.3317C36 54.3317 34.0278 53.5235 32.4167 51.9071C30.8056 50.2907 30 48.312 30 45.971C30 43.63 30.8056 41.6514 32.4167 40.035C34.0278 38.4186 36 37.6104 38.3333 37.6104C40.6667 37.6104 42.6389 38.4186 44.25 40.035C45.8611 41.6514 46.6667 43.63 46.6667 45.971C46.6667 48.312 45.8611 50.2907 44.25 51.9071C42.6389 53.5235 40.6667 54.3317 38.3333 54.3317ZM6.66667 67.7087C4.83333 67.7087 3.26333 67.0544 1.95667 65.7457C0.652222 64.4347 0 62.8596 0 61.0202V14.2005C0 12.3612 0.652222 10.7872 1.95667 9.47844C3.26333 8.16749 4.83333 7.51201 6.66667 7.51201H10V0.823486H16.6667V7.51201H43.3333V0.823486H50V7.51201H53.3333C55.1667 7.51201 56.7367 8.16749 58.0433 9.47844C59.3478 10.7872 60 12.3612 60 14.2005V61.0202C60 62.8596 59.3478 64.4347 58.0433 65.7457C56.7367 67.0544 55.1667 67.7087 53.3333 67.7087H6.66667ZM6.66667 61.0202H53.3333V27.5776H6.66667V61.0202Z" fill="#6A3791"/>
</svg>
