<svg width="30" height="25" viewBox="0 0 30 25" fill="none" xmlns="http://www.w3.org/2000/svg">
<path d="M14.2865 11.8421V22.2105C14.3437 22.6053 14.2008 23.0263 13.8723 23.3026C13.7401 23.4246 13.5831 23.5214 13.4103 23.5874C13.2375 23.6534 13.0523 23.6874 12.8652 23.6874C12.6781 23.6874 12.4929 23.6534 12.32 23.5874C12.1472 23.5214 11.9903 23.4246 11.8581 23.3026L8.98682 20.6579C8.83102 20.5176 8.71256 20.346 8.6407 20.1566C8.56883 19.9671 8.54551 19.7649 8.57256 19.5658V11.8421H8.5297L0.301567 2.13158C0.0695907 1.85728 -0.0350818 1.50955 0.0104216 1.16438C0.0559251 0.819213 0.247905 0.504666 0.544411 0.289474C0.815826 0.105263 1.11581 0 1.43008 0H21.429C21.7433 0 22.0433 0.105263 22.3147 0.289474C22.6112 0.504666 22.8032 0.819213 22.8487 1.16438C22.8942 1.50955 22.7895 1.85728 22.5575 2.13158L14.3294 11.8421H14.2865ZM18.572 18.4211H22.8575V14.4737H25.7145V18.4211H30V21.0526H25.7145V25H22.8575V21.0526H18.572V18.4211Z" fill="#6A3791"/>
</svg>
