<svg width="60" height="61" viewBox="0 0 60 61" fill="none" xmlns="http://www.w3.org/2000/svg">
<path d="M0 45.8235V3.82349C0 2.97349 0.288 2.26049 0.864 1.68449C1.438 1.11049 2.15 0.823486 3 0.823486H42C42.85 0.823486 43.562 1.11049 44.136 1.68449C44.712 2.26049 45 2.97349 45 3.82349V30.8235C45 31.6735 44.712 32.3855 44.136 32.9595C43.562 33.5355 42.85 33.8235 42 33.8235H12L0 45.8235ZM15 48.8235C14.15 48.8235 13.437 48.5355 12.861 47.9595C12.287 47.3855 12 46.6735 12 45.8235V39.8235H51V12.8235H57C57.85 12.8235 58.562 13.1105 59.136 13.6845C59.712 14.2605 60 14.9735 60 15.8235V60.8235L48 48.8235H15Z" fill="#6A3791"/>
</svg>
