<svg width="60" height="56" viewBox="0 0 60 56" fill="none" xmlns="http://www.w3.org/2000/svg">
<path d="M22.5 38.6989L43.5 25.0225L22.5 11.346V38.6989ZM18 55.4146V49.3362H6C4.35 49.3362 2.938 48.7415 1.764 47.5522C0.588 46.3608 0 44.9293 0 43.2578V6.78717C0 5.1156 0.588 3.68413 1.764 2.49276C2.938 1.30341 4.35 0.70874 6 0.70874H54C55.65 0.70874 57.063 1.30341 58.239 2.49276C59.413 3.68413 60 5.1156 60 6.78717V43.2578C60 44.9293 59.413 46.3608 58.239 47.5522C57.063 48.7415 55.65 49.3362 54 49.3362H42V55.4146H18Z" fill="#6A3791"/>
</svg>
