<svg width="60" height="54" viewBox="0 0 60 54" fill="none" xmlns="http://www.w3.org/2000/svg">
<path d="M12 41.8627H27V35.8824H12V41.8627ZM42 41.8627H48V35.8824H42V41.8627ZM12 29.902H27V23.9216H12V29.902ZM42 29.902H48V11.9608H42V29.902ZM12 17.9412H27V11.9608H12V17.9412ZM6 53.8235C4.35 53.8235 2.938 53.2384 1.764 52.0683C0.588 50.8961 0 49.4877 0 47.8431V5.98039C0 4.33578 0.588 2.9274 1.764 1.75524C2.938 0.585081 4.35 0 6 0H54C55.65 0 57.063 0.585081 58.239 1.75524C59.413 2.9274 60 4.33578 60 5.98039V47.8431C60 49.4877 59.413 50.8961 58.239 52.0683C57.063 53.2384 55.65 53.8235 54 53.8235H6Z" fill="#6A3791"/>
</svg>
