<svg width="60" height="61" viewBox="0 0 60 61" fill="none" xmlns="http://www.w3.org/2000/svg">
<path d="M58.23 29.4487L31.23 2.44874C30.15 1.36874 28.65 0.70874 27 0.70874H6C2.7 0.70874 0 3.40874 0 6.70874V27.7087C0 29.3587 0.66 30.8587 1.77 31.9687L28.77 58.9687C29.85 60.0487 31.35 60.7087 33 60.7087C34.65 60.7087 36.15 60.0487 37.23 58.9387L58.23 37.9387C59.34 36.8587 60 35.3587 60 33.7087C60 32.0587 59.31 30.5287 58.23 29.4487ZM10.5 15.7087C8.01 15.7087 6 13.6987 6 11.2087C6 8.71874 8.01 6.70874 10.5 6.70874C12.99 6.70874 15 8.71874 15 11.2087C15 13.6987 12.99 15.7087 10.5 15.7087Z" fill="#6A3791"/>
</svg>
