<svg width="50" height="50" viewBox="0 0 50 50" fill="none" xmlns="http://www.w3.org/2000/svg">
<path d="M47.0833 49.9998C41.1111 49.9998 35.2898 48.6804 29.6194 46.0415C23.9491 43.4026 18.9259 39.8841 14.55 35.486C10.1741 31.0878 6.65556 26.0527 3.99444 20.3805C1.33333 14.7083 0.00185185 8.887 0 2.91666V1.45833C0 0.949071 0.0462962 0.462961 0.138889 0H16.3889L18.9583 13.9583L11.0417 21.9444C12.9861 25.2777 15.4287 28.4027 18.3694 31.3193C21.3102 34.236 24.5389 36.7591 28.0556 38.8887L36.1111 30.8332L50 33.611V49.8609C49.537 49.9072 49.0509 49.9424 48.5417 49.9665C48.0324 49.9905 47.5463 50.0017 47.0833 49.9998Z" fill="#6A3791"/>
</svg>
