<svg width="90" height="100" viewBox="0 0 143 152" fill="none" xmlns="http://www.w3.org/2000/svg">
<path d="M53.4126 109.742L103.178 75.8395L53.4126 41.9367V109.742ZM71.1861 151.179C61.3514 151.179 52.1092 149.2 43.4595 145.242C34.8098 141.289 27.2857 135.923 20.8872 129.142C14.4888 122.362 9.42453 114.388 5.69448 105.222C1.95968 96.0556 0.0922852 86.2615 0.0922852 75.8395C0.0922852 65.4175 1.95968 55.6234 5.69448 46.4571C9.42453 37.2908 14.4888 29.3174 20.8872 22.5368C27.2857 15.7562 34.8098 10.3871 43.4595 6.42922C52.1092 2.47641 61.3514 0.5 71.1861 0.5C81.0207 0.5 90.2629 2.47641 98.9127 6.42922C107.562 10.3871 115.087 15.7562 121.485 22.5368C127.883 29.3174 132.948 37.2908 136.678 46.4571C140.412 55.6234 142.28 65.4175 142.28 75.8395C142.28 86.2615 140.412 96.0556 136.678 105.222C132.948 114.388 127.883 122.362 121.485 129.142C115.087 135.923 107.562 141.289 98.9127 145.242C90.2629 149.2 81.0207 151.179 71.1861 151.179ZM71.1861 136.111C87.0637 136.111 100.512 130.272 111.532 118.595C122.551 106.917 128.061 92.6653 128.061 75.8395C128.061 59.0137 122.551 44.762 111.532 33.0843C100.512 21.4067 87.0637 15.5679 71.1861 15.5679C55.3085 15.5679 41.8599 21.4067 30.8404 33.0843C19.8208 44.762 14.311 59.0137 14.311 75.8395C14.311 92.6653 19.8208 106.917 30.8404 118.595C41.8599 130.272 55.3085 136.111 71.1861 136.111Z" fill="white"/>
</svg>
