<svg width="60" height="55" viewBox="0 0 60 55" fill="none" xmlns="http://www.w3.org/2000/svg">
<path d="M3 54.2381C2.15 54.2381 1.438 53.951 0.864 53.3769C0.288 52.8048 0 52.0951 0 51.2479V21.3459C0 20.4987 0.288 19.788 0.864 19.2139C1.438 18.6418 2.15 18.3557 3 18.3557H13.5C14.35 18.3557 15.063 18.6418 15.639 19.2139C16.213 19.788 16.5 20.4987 16.5 21.3459V51.2479C16.5 52.0951 16.213 52.8048 15.639 53.3769C15.063 53.951 14.35 54.2381 13.5 54.2381H3ZM24.75 54.2381C23.9 54.2381 23.188 53.951 22.614 53.3769C22.038 52.8048 21.75 52.0951 21.75 51.2479V3.40475C21.75 2.55752 22.038 1.84685 22.614 1.27274C23.188 0.700613 23.9 0.414551 24.75 0.414551H35.25C36.1 0.414551 36.813 0.700613 37.389 1.27274C37.963 1.84685 38.25 2.55752 38.25 3.40475V51.2479C38.25 52.0951 37.963 52.8048 37.389 53.3769C36.813 53.951 36.1 54.2381 35.25 54.2381H24.75ZM46.5 54.2381C45.65 54.2381 44.938 53.951 44.364 53.3769C43.788 52.8048 43.5 52.0951 43.5 51.2479V27.3263C43.5 26.4791 43.788 25.7684 44.364 25.1943C44.938 24.6222 45.65 24.3361 46.5 24.3361H57C57.85 24.3361 58.562 24.6222 59.136 25.1943C59.712 25.7684 60 26.4791 60 27.3263V51.2479C60 52.0951 59.712 52.8048 59.136 53.3769C58.562 53.951 57.85 54.2381 57 54.2381H46.5Z" fill="#6A3791"/>
</svg>
