<svg width="24" height="60" viewBox="0 0 24 60" fill="none" xmlns="http://www.w3.org/2000/svg">
<path d="M0.831409 58.8142C0.277136 58.0237 0 57.0877 0 56.0063C0 54.927 0.277136 53.9921 0.831409 53.2016L17.0716 30.0395L0.775981 6.79842C0.25866 6.06061 0 5.13834 0 4.03162C0 2.9249 0.277136 1.97628 0.831409 1.18577C1.38568 0.395257 2.04194 0 2.80018 0C3.55695 0 4.21247 0.395257 4.76674 1.18577L23.3903 27.8261C23.612 28.1423 23.7694 28.4848 23.8625 28.8538C23.9542 29.2227 24 29.6179 24 30.0395C24 30.4611 23.9542 30.8564 23.8625 31.2253C23.7694 31.5942 23.612 31.9368 23.3903 32.253L4.71132 58.8933C4.19399 59.6311 3.55695 60 2.80018 60C2.04194 60 1.38568 59.6047 0.831409 58.8142Z" fill="#6A3791"/>
</svg>
