<svg width="23" height="23" viewBox="0 0 23 23" fill="none" xmlns="http://www.w3.org/2000/svg">
<path d="M15.7176 11.7376C15.7176 11.5913 15.6946 11.4541 15.6485 11.3261C15.6031 11.1981 15.5256 11.0792 15.4159 10.9695L12.563 8.11659C12.3618 7.91542 12.1058 7.81484 11.7949 7.81484C11.484 7.81484 11.228 7.91542 11.0268 8.11659C10.8257 8.31775 10.7251 8.57378 10.7251 8.88467C10.7251 9.19556 10.8257 9.45159 11.0268 9.65276L12.0144 10.6403L8.50312 10.6403C8.19223 10.6403 7.93144 10.7453 7.72077 10.9552C7.51082 11.1659 7.40585 11.4267 7.40585 11.7376C7.40585 12.0485 7.51082 12.3089 7.72077 12.5188C7.93144 12.7295 8.19223 12.8348 8.50312 12.8348L12.0144 12.8348L11.0268 13.8224C10.8257 14.0235 10.7251 14.2796 10.7251 14.5904C10.7251 14.9013 10.8257 15.1574 11.0268 15.3585C11.228 15.5597 11.484 15.6603 11.7949 15.6603C12.1058 15.6603 12.3618 15.5597 12.563 15.3585L15.4159 12.5056C15.5256 12.3959 15.6031 12.277 15.6485 12.149C15.6946 12.021 15.7176 11.8839 15.7176 11.7376ZM22.7676 11.7376C22.7676 13.2554 22.4793 14.6819 21.9029 16.0169C21.3272 17.3519 20.5456 18.5132 19.5581 19.5007C18.5705 20.4882 17.4092 21.2699 16.0742 21.8456C14.7392 22.422 13.3128 22.7102 11.7949 22.7102C10.277 22.7102 8.85058 22.422 7.51558 21.8456C6.18057 21.2699 5.0193 20.4882 4.03176 19.5007C3.04423 18.5132 2.26224 17.3519 1.68581 16.0169C1.11011 14.6819 0.822265 13.2554 0.822265 11.7376C0.822265 10.2197 1.11011 8.79323 1.68581 7.45823C2.26224 6.12322 3.04423 4.96195 4.03176 3.97441C5.0193 2.98687 6.18057 2.20526 7.51558 1.62956C8.85058 1.05313 10.277 0.764915 11.7949 0.764915C13.3128 0.764915 14.7392 1.05313 16.0742 1.62956C17.4092 2.20526 18.5705 2.98687 19.5581 3.97441C20.5456 4.96195 21.3272 6.12322 21.9029 7.45823C22.4793 8.79323 22.7676 10.2197 22.7676 11.7376Z" fill="white"/>
</svg>
