<svg width="30" height="24" viewBox="0 0 30 24" fill="none" xmlns="http://www.w3.org/2000/svg">
<path d="M29.6825 2.84684C28.591 3.32792 27.4184 3.65297 26.1856 3.79989C27.4576 3.0429 28.4092 1.85148 28.8629 0.447947C27.6679 1.15395 26.36 1.6509 24.996 1.91719C24.0788 0.943152 22.864 0.297546 21.5401 0.0806033C20.2162 -0.13634 18.8573 0.0875171 17.6744 0.71742C16.4915 1.34732 15.5508 2.34803 14.9983 3.56417C14.4459 4.78031 14.3125 6.14385 14.619 7.44309C12.1976 7.32216 9.82877 6.69618 7.6663 5.60576C5.50383 4.51535 3.59605 2.98487 2.06677 1.11366C1.54387 2.0108 1.2432 3.05097 1.2432 4.15875C1.24262 5.15601 1.48953 6.13799 1.96203 7.01757C2.43453 7.89715 3.11802 8.64713 3.95183 9.20098C2.98483 9.17037 2.03915 8.91049 1.19352 8.44295V8.52096C1.19343 9.91965 1.67987 11.2753 2.5703 12.3579C3.46074 13.4405 4.70033 14.1833 6.07874 14.4603C5.18168 14.7018 4.24118 14.7374 3.32827 14.5644C3.71718 15.7678 4.47473 16.8203 5.49487 17.5742C6.51502 18.3282 7.74669 18.7461 9.01745 18.7692C6.86026 20.4535 4.19614 21.3672 1.45367 21.3632C0.967867 21.3633 0.482477 21.3351 0 21.2786C2.78377 23.0589 6.02428 24.0037 9.3338 24C20.537 24 26.6615 14.7711 26.6615 6.76698C26.6615 6.50694 26.6549 6.24429 26.6432 5.98425C27.8345 5.12738 28.8628 4.0663 29.6799 2.85074L29.6825 2.84684Z" fill="white"/>
</svg>
