<svg width="62" height="71" viewBox="0 0 62 71" fill="none" xmlns="http://www.w3.org/2000/svg">
<g filter="url(#filter0_d_101_473)">
<mask id="path-1-inside-1_101_473" fill="white">
<path d="M29.7777 13.1204H34.1577V26.3378H29.7777M41.8151 13.1204H46.1951V26.3378H41.8151M15.5656 0.983887L4.63086 12.0087V51.7226H17.7403V62.7474L28.7057 51.7226H37.4351L57.1299 31.8657V0.983887M52.7498 29.6731L44.0204 38.4744H35.2604L27.603 46.1948V38.4744H17.7403V5.39998H52.7498V29.6731Z"/>
</mask>
<path d="M29.7777 13.1204H34.1577V26.3378H29.7777M41.8151 13.1204H46.1951V26.3378H41.8151M15.5656 0.983887L4.63086 12.0087V51.7226H17.7403V62.7474L28.7057 51.7226H37.4351L57.1299 31.8657V0.983887M52.7498 29.6731L44.0204 38.4744H35.2604L27.603 46.1948V38.4744H17.7403V5.39998H52.7498V29.6731Z" fill="#6B3691"/>
<path d="M34.1577 13.1204H35.1577V12.1204H34.1577V13.1204ZM34.1577 26.3378V27.3378H35.1577V26.3378H34.1577ZM46.1951 13.1204H47.1951V12.1204H46.1951V13.1204ZM46.1951 26.3378V27.3378H47.1951V26.3378H46.1951ZM4.63086 12.0087L3.92086 11.3045L3.63086 11.5969V12.0087H4.63086ZM4.63086 51.7226H3.63086V52.7226H4.63086V51.7226ZM17.7403 51.7226H18.7403V50.7226H17.7403V51.7226ZM17.7403 62.7474H16.7403V65.1709L18.4493 63.4526L17.7403 62.7474ZM28.7057 51.7226V50.7226H28.2899L27.9967 51.0174L28.7057 51.7226ZM37.4351 51.7226V52.7226H37.8517L38.1451 52.4268L37.4351 51.7226ZM57.1299 31.8657L57.8399 32.5699L58.1299 32.2775V31.8657H57.1299ZM52.7498 29.6731L53.4599 30.3773L53.7498 30.0849V29.6731H52.7498ZM44.0204 38.4744V39.4744H44.4371L44.7304 39.1786L44.0204 38.4744ZM35.2604 38.4744V37.4744H34.8438L34.5504 37.7702L35.2604 38.4744ZM27.603 46.1948H26.603V48.6231L28.313 46.899L27.603 46.1948ZM27.603 38.4744H28.603V37.4744H27.603V38.4744ZM17.7403 38.4744H16.7403V39.4744H17.7403V38.4744ZM17.7403 5.39998V4.39998H16.7403V5.39998H17.7403ZM52.7498 5.39998H53.7498V4.39998H52.7498V5.39998ZM29.7777 14.1204H34.1577V12.1204H29.7777V14.1204ZM33.1577 13.1204V26.3378H35.1577V13.1204H33.1577ZM34.1577 25.3378H29.7777V27.3378H34.1577V25.3378ZM41.8151 14.1204H46.1951V12.1204H41.8151V14.1204ZM45.1951 13.1204V26.3378H47.1951V13.1204H45.1951ZM46.1951 25.3378H41.8151V27.3378H46.1951V25.3378ZM14.8556 0.279686L3.92086 11.3045L5.34086 12.7129L16.2756 1.68809L14.8556 0.279686ZM3.63086 12.0087V51.7226H5.63086V12.0087H3.63086ZM4.63086 52.7226H17.7403V50.7226H4.63086V52.7226ZM16.7403 51.7226V62.7474H18.7403V51.7226H16.7403ZM18.4493 63.4526L29.4147 52.4278L27.9967 51.0174L17.0313 62.0422L18.4493 63.4526ZM28.7057 52.7226H37.4351V50.7226H28.7057V52.7226ZM38.1451 52.4268L57.8399 32.5699L56.4199 31.1615L36.7251 51.0184L38.1451 52.4268ZM58.1299 31.8657V0.983887H56.1299V31.8657H58.1299ZM52.0398 28.9689L43.3104 37.7702L44.7304 39.1786L53.4599 30.3773L52.0398 28.9689ZM44.0204 37.4744H35.2604V39.4744H44.0204V37.4744ZM34.5504 37.7702L26.893 45.4906L28.313 46.899L35.9704 39.1786L34.5504 37.7702ZM28.603 46.1948V38.4744H26.603V46.1948H28.603ZM27.603 37.4744H17.7403V39.4744H27.603V37.4744ZM18.7403 38.4744V5.39998H16.7403V38.4744H18.7403ZM17.7403 6.39998H52.7498V4.39998H17.7403V6.39998ZM51.7498 5.39998V29.6731H53.7498V5.39998H51.7498Z" fill="black" mask="url(#path-1-inside-1_101_473)"/>
</g>
<defs>
<filter id="filter0_d_101_473" x="0.630859" y="0.983887" width="60.499" height="69.7637" filterUnits="userSpaceOnUse" color-interpolation-filters="sRGB">
<feFlood flood-opacity="0" result="BackgroundImageFix"/>
<feColorMatrix in="SourceAlpha" type="matrix" values="0 0 0 0 0 0 0 0 0 0 0 0 0 0 0 0 0 0 127 0" result="hardAlpha"/>
<feOffset dy="4"/>
<feGaussianBlur stdDeviation="2"/>
<feComposite in2="hardAlpha" operator="out"/>
<feColorMatrix type="matrix" values="0 0 0 0 0 0 0 0 0 0 0 0 0 0 0 0 0 0 0.25 0"/>
<feBlend mode="normal" in2="BackgroundImageFix" result="effect1_dropShadow_101_473"/>
<feBlend mode="normal" in="SourceGraphic" in2="effect1_dropShadow_101_473" result="shape"/>
</filter>
</defs>
</svg>
