<svg width="28" height="29" viewBox="0 0 28 29" fill="none" xmlns="http://www.w3.org/2000/svg">
<path d="M23.9196 4.21957C22.6296 2.87677 21.0931 1.8121 19.3997 1.08766C17.7063 0.363215 15.8898 -0.00649615 14.0563 8.63757e-05C6.37387 8.63757e-05 0.112563 6.45257 0.112563 14.3695C0.112563 16.907 0.759799 19.372 1.96985 21.547L0 29L7.38693 26.999C9.42714 28.1445 11.7206 28.7535 14.0563 28.7535C21.7387 28.7535 28 22.301 28 14.384C28 10.5416 26.5508 6.93107 23.9196 4.21957ZM14.0563 26.3175C11.9739 26.3175 9.93367 25.7375 8.14673 24.65L7.72462 24.389L3.33467 25.578L4.50251 21.17L4.22111 20.7205C3.06417 18.8166 2.44985 16.6159 2.44824 14.3695C2.44824 7.78656 7.65427 2.42158 14.0422 2.42158C17.1377 2.42158 20.0503 3.66858 22.2312 5.93057C23.311 7.03831 24.1668 8.35592 24.7489 9.80702C25.331 11.2581 25.6278 12.8139 25.6221 14.384C25.6503 20.967 20.4442 26.3175 14.0563 26.3175ZM20.4161 17.3855C20.0643 17.2115 18.3477 16.3415 18.0382 16.211C17.7146 16.095 17.4894 16.037 17.2503 16.385C17.0111 16.7475 16.3497 17.5595 16.1528 17.7915C15.9558 18.038 15.7447 18.067 15.393 17.8785C15.0412 17.7045 13.9156 17.313 12.593 16.095C11.5518 15.138 10.8623 13.9635 10.6513 13.601C10.4543 13.2385 10.6231 13.05 10.806 12.8615C10.9608 12.702 11.1578 12.441 11.3266 12.238C11.4955 12.035 11.5658 11.8756 11.6784 11.6436C11.791 11.3971 11.7347 11.1941 11.6503 11.0201C11.5658 10.8461 10.8623 9.07706 10.5809 8.35206C10.2995 7.65606 10.004 7.74306 9.79296 7.72856H9.11759C8.87839 7.72856 8.51256 7.81556 8.18894 8.17806C7.8794 8.54056 6.97889 9.41056 6.97889 11.1796C6.97889 12.9485 8.23116 14.6595 8.4 14.8915C8.56884 15.138 10.8623 18.763 14.3518 20.3145C15.1819 20.6915 15.8291 20.909 16.3357 21.0685C17.1658 21.344 17.9256 21.3005 18.5307 21.2135C19.206 21.112 20.599 20.3435 20.8804 19.5025C21.1759 18.6615 21.1759 17.951 21.0774 17.7915C20.9789 17.632 20.7678 17.5595 20.4161 17.3855Z" fill="white"/>
</svg>
