<svg width="60" height="61" viewBox="0 0 60 61" fill="none" xmlns="http://www.w3.org/2000/svg">
<path d="M43.08 36.8235C43.32 34.8435 43.5 32.8635 43.5 30.8235C43.5 28.7835 43.32 26.8035 43.08 24.8235H53.22C53.7 26.7435 54 28.7535 54 30.8235C54 32.8935 53.7 34.9035 53.22 36.8235M37.77 53.5035C39.57 50.1735 40.95 46.5735 41.91 42.8235H50.76C47.8535 47.8283 43.2423 51.6195 37.77 53.5035ZM37.02 36.8235H22.98C22.68 34.8435 22.5 32.8635 22.5 30.8235C22.5 28.7835 22.68 26.7735 22.98 24.8235H37.02C37.29 26.7735 37.5 28.7835 37.5 30.8235C37.5 32.8635 37.29 34.8435 37.02 36.8235ZM30 54.7035C27.51 51.1035 25.5 47.1135 24.27 42.8235H35.73C34.5 47.1135 32.49 51.1035 30 54.7035ZM18 18.8235H9.24C12.1166 13.8051 16.7244 10.0079 22.2 8.14349C20.4 11.4735 19.05 15.0735 18 18.8235ZM9.24 42.8235H18C19.05 46.5735 20.4 50.1735 22.2 53.5035C16.7359 51.6185 12.1345 47.8266 9.24 42.8235ZM6.78 36.8235C6.3 34.9035 6 32.8935 6 30.8235C6 28.7535 6.3 26.7435 6.78 24.8235H16.92C16.68 26.8035 16.5 28.7835 16.5 30.8235C16.5 32.8635 16.68 34.8435 16.92 36.8235M30 6.91349C32.49 10.5135 34.5 14.5335 35.73 18.8235H24.27C25.5 14.5335 27.51 10.5135 30 6.91349ZM50.76 18.8235H41.91C40.9711 15.1079 39.5807 11.5212 37.77 8.14349C43.29 10.0335 47.88 13.8435 50.76 18.8235ZM30 0.823486C13.41 0.823486 0 14.3235 0 30.8235C0 38.78 3.16071 46.4106 8.7868 52.0367C11.5726 54.8224 14.8797 57.0322 18.5195 58.5399C22.1593 60.0475 26.0603 60.8235 30 60.8235C37.9565 60.8235 45.5871 57.6628 51.2132 52.0367C56.8393 46.4106 60 38.78 60 30.8235C60 26.8838 59.224 22.9827 57.7164 19.343C56.2087 15.7032 53.999 12.396 51.2132 9.61028C48.4274 6.82453 45.1203 4.61474 41.4805 3.1071C37.8407 1.59946 33.9397 0.823486 30 0.823486Z" fill="#6A3791"/>
</svg>
