<svg width="96" height="71" viewBox="0 0 96 71" fill="none" xmlns="http://www.w3.org/2000/svg">
<g filter="url(#filter0_d_101_474)">
<path d="M48.3226 0.983887H48.8037C53.2463 1.00037 75.7566 1.16524 81.826 2.82487C83.6609 3.33138 85.3329 4.31866 86.6749 5.68805C88.0169 7.05744 88.982 8.76098 89.4736 10.6284C90.0195 12.7167 90.4032 15.4809 90.6627 18.3331L90.7167 18.9046L90.8356 20.3334L90.8788 20.905C91.2301 25.9278 91.2734 30.6319 91.2788 31.6596V32.0717C91.2734 33.1379 91.2247 38.1607 90.8356 43.3924L90.7924 43.9694L90.7437 44.541C90.4735 47.6844 90.0735 50.8058 89.4736 53.1029C88.9835 54.9711 88.0189 56.6754 86.6767 58.0451C85.3344 59.4147 83.6616 60.4015 81.826 60.9065C75.5567 62.621 51.7276 62.7419 48.4253 62.7474H47.6579C45.9878 62.7474 39.0807 62.7145 31.8385 62.4617L30.9197 62.4287L30.4495 62.4067L29.5253 62.3682L28.6011 62.3298C22.6019 62.0605 16.8892 61.6264 14.2571 60.901C12.4222 60.3964 10.7499 59.4105 9.40768 58.0419C8.06549 56.6733 7.10056 54.9701 6.60956 53.1029C6.00965 50.8113 5.6097 47.6844 5.33947 44.541L5.29623 43.9639L5.253 43.3924C4.98626 39.6687 4.83846 35.9371 4.80981 32.2036L4.80981 31.5277C4.82062 30.3462 4.86386 26.263 5.15571 21.7567L5.19354 21.1907L5.20976 20.905L5.253 20.3334L5.3719 18.9046L5.42594 18.3331C5.68537 15.4809 6.0691 12.7112 6.61497 10.6284C7.10513 8.76023 8.06969 7.05589 9.41194 5.68626C10.7542 4.31663 12.427 3.32986 14.2625 2.82487C16.8946 2.11046 22.6073 1.67082 28.6065 1.39605L29.5253 1.35758L30.4549 1.32461L30.9197 1.30812L31.8439 1.26965C36.9875 1.10135 42.1333 1.00792 47.2795 0.989382H48.3226V0.983887ZM39.3996 18.6243V45.1015L61.8667 31.8684L39.3996 18.6243Z" fill="#6B3691"/>
<path d="M90.1649 18.3802L90.1647 18.3784C89.9061 15.5352 89.5253 12.8032 88.9899 10.7549C88.5201 8.97107 87.5984 7.34474 86.3178 6.03802C85.0372 4.73134 83.4427 3.79 81.6938 3.30707C80.2263 2.90585 77.724 2.58689 74.6896 2.3377C71.6671 2.08948 68.1539 1.91311 64.6868 1.78787C57.7747 1.53821 51.063 1.4924 48.8226 1.48396V1.48938H48.3226H47.2804C42.1401 1.50791 37.0002 1.60122 31.8624 1.76931C31.8617 1.76934 31.861 1.76936 31.8602 1.76938L30.9405 1.80769L30.9374 1.80782L30.4726 1.82429L29.5462 1.85714L29.543 1.85726L28.6294 1.89552C28.629 1.89554 28.6287 1.89555 28.6284 1.89557C22.6131 2.1711 16.9624 2.61038 14.3944 3.30718C12.6449 3.78862 11.0497 4.72941 9.76905 6.03623C8.48814 7.34326 7.56691 8.97051 7.09863 10.7552L90.1649 18.3802ZM90.1649 18.3802L90.2184 18.9461L90.2189 18.9517L90.337 20.3711L90.3373 20.3749L90.3801 20.9398C90.3801 20.9403 90.3801 20.9408 90.3802 20.9413C90.7301 25.9454 90.7734 30.6343 90.7788 31.6608C90.7788 31.6612 90.7788 31.6617 90.7788 31.6622V32.0692C90.7788 32.0697 90.7788 32.0702 90.7788 32.0707C90.7734 33.1358 90.7247 38.1429 90.337 43.355C90.337 43.3551 90.337 43.3552 90.337 43.3553L90.2942 43.927L90.2938 43.9321L90.2456 44.4981L90.7437 44.541L90.2455 44.4986M90.1649 18.3802L90.2455 44.4986M30.4703 61.9071L30.4728 61.9072L30.9376 61.929L30.943 61.9292L31.8559 61.962C31.8561 61.962 31.8562 61.962 31.8564 61.962M30.4703 61.9071L47.6579 62.7474C45.9878 62.7474 39.0807 62.7145 31.8385 62.4617L31.8564 61.962M30.4703 61.9071L29.5461 61.8687L28.6235 61.8303C28.623 61.8303 28.6225 61.8302 28.622 61.8302C22.6054 61.5601 16.9561 61.1262 14.39 60.4189L14.3897 60.4188M30.4703 61.9071L14.3897 60.4188M31.8564 61.962C39.0906 62.2145 45.9912 62.2474 47.6579 62.2474H48.4245M31.8564 61.962L48.4245 62.2474M48.4245 62.2474C50.0732 62.2447 56.8499 62.2131 63.9959 61.9681C67.5692 61.8456 71.2304 61.6699 74.3869 61.4183C77.5558 61.1656 80.1768 60.839 81.6934 60.4244M48.4245 62.2474L86.6767 58.0451C88.0189 56.6754 88.9835 54.9711 89.4736 53.1029M81.6934 60.4244L81.826 60.9065L81.6942 60.4242C81.6939 60.4242 81.6937 60.4243 81.6934 60.4244ZM81.6934 60.4244C83.4432 59.943 85.0387 59.0021 86.3195 57.6951C87.6004 56.3882 88.5215 54.7611 88.9899 52.9765M88.9899 52.9765L89.4736 53.1029M88.9899 52.9765C89.5786 50.7223 89.9758 47.6359 90.2455 44.4986M88.9899 52.9765C88.9899 52.9764 88.99 52.9762 88.99 52.976L89.4736 53.1029M89.4736 53.1029L90.2455 44.4986M14.3897 60.4188C12.6406 59.9379 11.0455 58.9978 9.76466 57.6918C8.48377 56.3857 7.56218 54.7595 7.09312 52.9757C6.50472 50.7279 6.10758 47.6374 5.83787 44.5008C5.83779 44.4999 5.83771 44.499 5.83763 44.4981L5.79484 43.9266L5.79481 43.9262M14.3897 60.4188L5.79481 43.9262M5.79481 43.9262L5.75172 43.3567C5.75169 43.3563 5.75167 43.356 5.75165 43.3557C5.48576 39.6435 5.33841 35.9236 5.30981 32.2017V31.53C5.32064 30.348 5.36392 26.2786 5.65463 21.7896C5.65464 21.7894 5.65466 21.7892 5.65467 21.7891L5.69243 21.2241L5.69246 21.2241M5.79481 43.9262L5.69246 21.2241M5.69246 21.2241L5.69274 21.219M5.69246 21.2241L5.69274 21.219M5.69274 21.219L5.70869 20.938L5.75127 20.3749L5.75157 20.3711L5.86994 18.9489L5.92373 18.3801L5.92389 18.3784M5.69274 21.219L5.92389 18.3784M5.92389 18.3784C6.18251 15.5351 6.56329 12.7979 7.0986 10.7553L5.92389 18.3784ZM39.6535 18.1936L38.8996 17.7492V18.6243V45.1015V45.9763L39.6533 45.5323L62.1204 32.2992L62.8516 31.8686L62.1206 31.4377L39.6535 18.1936Z" stroke="black"/>
</g>
<defs>
<filter id="filter0_d_101_474" x="0.809814" y="0.983887" width="94.469" height="69.7637" filterUnits="userSpaceOnUse" color-interpolation-filters="sRGB">
<feFlood flood-opacity="0" result="BackgroundImageFix"/>
<feColorMatrix in="SourceAlpha" type="matrix" values="0 0 0 0 0 0 0 0 0 0 0 0 0 0 0 0 0 0 127 0" result="hardAlpha"/>
<feOffset dy="4"/>
<feGaussianBlur stdDeviation="2"/>
<feComposite in2="hardAlpha" operator="out"/>
<feColorMatrix type="matrix" values="0 0 0 0 0 0 0 0 0 0 0 0 0 0 0 0 0 0 0.25 0"/>
<feBlend mode="normal" in2="BackgroundImageFix" result="effect1_dropShadow_101_474"/>
<feBlend mode="normal" in="SourceGraphic" in2="effect1_dropShadow_101_474" result="shape"/>
</filter>
</defs>
</svg>
